<?xml version="1.0" encoding="iso-8859-1"?>
<!-- Generator: Adobe Illustrator 19.0.0, SVG Export Plug-In . SVG Version: 6.00 Build 0)  -->
<svg version="1.1" id="Layer_1" xmlns="http://www.w3.org/2000/svg" xmlns:xlink="http://www.w3.org/1999/xlink" x="0px" y="0px"
	 viewBox="0 0 496.2 496.2" style="enable-background:new 0 0 496.2 496.2;" xml:space="preserve">
<path style="fill:#4ABC96;" d="M248.1,0C111.1,0,0,111.1,0,248.1s111.1,248.1,248.1,248.1s248.1-111.1,248.1-248.1S385.1,0,248.1,0z
	"/>
<path style="fill:#E6E7E8;" d="M418.5,382.8c-8.5-27.3-81.2-49.3-170.8-49.3s-161.5,22-170,49.3c-2.6,8.5-5.5,22.2-8.3,37.4
	c45.1,46.9,108.5,76,178.7,76s133.6-29.2,178.7-76C424.1,405,421.2,391.2,418.5,382.8z"/>
<polygon style="fill:#D4D6D8;" points="247.9,317 208.3,322.3 210.2,335.4 247.8,363.5 286,335.4 287.9,322.3 "/>
<path style="fill:#E2A379;" d="M287,282.1h-77.8c12.1,36.6,1,53.3,1,53.3l26.9,6.1h22l26.9-6.1C286,335.4,274.9,318.7,287,282.1z"/>
<path style="fill:#E6E7E8;" d="M304.2,336.5l-16.4-14.2l-39.7,19.2l-39.8-19.2l-16.2,14.1l-1.7,1.4c0,0,0.4,127.4,57.7,127.4
	s57.7-127.4,57.7-127.4L304.2,336.5z"/>
<g>
	<circle style="fill:#9B9B9A;" cx="294.6" cy="383.7" r="6"/>
	<circle style="fill:#9B9B9A;" cx="294.6" cy="430.2" r="6"/>
	<circle style="fill:#9B9B9A;" cx="294.6" cy="476.7" r="6"/>
	<circle style="fill:#9B9B9A;" cx="201.6" cy="383.7" r="6"/>
	<circle style="fill:#9B9B9A;" cx="201.6" cy="430.2" r="6"/>
	<circle style="fill:#9B9B9A;" cx="201.6" cy="476.7" r="6"/>
	<path style="fill:#9B9B9A;" d="M174.1,373.4v111.5c0.9,0.3,1.8,0.5,2.7,0.8V373.4H174.1z"/>
</g>
<path style="fill:#F4B382;" d="M248.1,61.6c-48.7,0-88.3,21.2-88.3,113.6c0,31.3,6.2,55.8,15.5,74.7c20.4,41.6,55.7,56.1,72.8,56.1
	s52.4-14.5,72.8-56.1c9.3-18.9,15.5-43.4,15.5-74.7C336.4,82.8,296.8,61.6,248.1,61.6z"/>
<g>
	<path style="fill:#141414;" d="M248.1,59.1c-58,0-88.3,23.7-88.3,116.1l39.8-33.1c0,0,26.5,0,48.5,0s46.2-35.3,46.2-35.3l42.1,68.4
		C336.4,82.8,306.1,59.1,248.1,59.1z"/>
	<path style="fill:#141414;" d="M180.1,138.6l-14.6,2.2c-4.2,10.9-5.6,24.4-5.6,37.5c0,0,8.8-1.9,8.8,2.6l2.8,27.6l3.9-1.9
		C175,183.6,180.1,138.6,180.1,138.6z"/>
	<path style="fill:#141414;" d="M330.8,140.8l-14.6-0.4c0,0,5.1,43.2,4.9,66.2l3.9,1.9l2.8-27.6c0-4.5,8.8-2.6,8.8-2.6
		C336.5,165.1,335.1,151.7,330.8,140.8z"/>
</g>
<polygon style="fill:#F5F6F7;" points="330.6,55.8 165.6,55.8 159.2,173.1 337,173.1 "/>
<g>
	<path style="fill:#DEDFE0;" d="M247,103.2c-0.6,0-1.1,0.5-1.1,1.1v60c0,0.6,0.5,1.1,1.1,1.1s1.1-0.5,1.1-1.1v-60
		C248.1,103.7,247.6,103.2,247,103.2z"/>
	<path style="fill:#DEDFE0;" d="M197.2,103.2c-0.6,0-1.1,0.5-1.1,1.1v60c0,0.6,0.5,1.1,1.1,1.1s1.1-0.5,1.1-1.1v-60
		C198.3,103.7,197.8,103.2,197.2,103.2z"/>
	<path style="fill:#DEDFE0;" d="M296.8,103.2c-0.6,0-1.1,0.5-1.1,1.1v60c0,0.6,0.5,1.1,1.1,1.1s1.1-0.5,1.1-1.1v-60
		C297.9,103.7,297.4,103.2,296.8,103.2z"/>
	<path style="fill:#DEDFE0;" d="M271.7,119.2c-0.6,0-1.1,0.4-1.1,0.8v44.5c0,0.4,0.5,0.8,1.1,0.8s1.1-0.4,1.1-0.8V120
		C272.7,119.6,272.3,119.2,271.7,119.2z"/>
	<path style="fill:#DEDFE0;" d="M171.9,119.2c-0.6,0-1.1,0.4-1.1,0.8v44.5c0,0.4,0.5,0.8,1.1,0.8s1.1-0.4,1.1-0.8V120
		C172.9,119.6,172.4,119.2,171.9,119.2z"/>
	<path style="fill:#DEDFE0;" d="M321.5,119.2c-0.6,0-1.1,0.4-1.1,0.8v44.5c0,0.4,0.5,0.8,1.1,0.8s1.1-0.4,1.1-0.8V120
		C322.6,119.6,322.1,119.2,321.5,119.2z"/>
</g>
<g>
	<circle style="fill:#F5F6F7;" cx="248.1" cy="51.4" r="40.4"/>
	<circle style="fill:#F5F6F7;" cx="302.8" cy="60.7" r="40.4"/>
	<circle style="fill:#F5F6F7;" cx="193.4" cy="60.7" r="40.4"/>
</g>
<path style="fill:#E5A173;" d="M259.5,254.8c-3.3-0.5-11.4,2.7-11.4,2.7s-8.3-3.1-11.6-2.7c-5.3,0.8-13.1,4.9-13.1,6.4
	c0,2.4,11,8.8,24.7,8.8s24.7-6.5,24.7-8.8C272.8,261.2,264.9,255.5,259.5,254.8z"/>
<path style="fill:#D89364;" d="M248.1,262.4c-14.6,0-24.7-1.2-24.7-1.2c0,2.4,11,11.5,24.7,11.5c13.7,0,24.7-9.1,24.7-11.5
	C272.8,261.2,262.7,262.4,248.1,262.4z"/>
<g>
	<path style="fill:#F4B382;" d="M161.4,178c-8.4,1.4-14.9,5.1-10.1,32.9s10.7,29.1,19.1,27.7L161.4,178z"/>
	<path style="fill:#F4B382;" d="M334.9,178l-9,60.6c8.4,1.4,14.3,0.1,19.1-27.7C349.7,183.1,343.3,179.5,334.9,178z"/>
</g>
<g>
	<path style="fill:#141414;" d="M247.9,246.1c-2-2-5.2-2-7.1-0.1c-2,2-4.9,3.6-8.1,4.7c-3.2,1.1-6.7,1.8-10.3,2.1
		c-3.6,0.4-7.3,0.4-11,0.3s-7.4-0.5-11.1-1.1c3.5,1.4,7.1,2.5,10.8,3.5s7.4,1.7,11.3,2.2c3.9,0.5,7.8,0.6,11.9,0.2
		c4.1-0.4,8.4-1.5,12.4-3.9l0.3-0.2c0.3-0.2,0.7-0.4,0.9-0.7C249.8,251.3,249.8,248.1,247.9,246.1z"/>
	<path style="fill:#141414;" d="M284.9,253.2c-3.7,0.1-7.4,0.1-11-0.3s-7.1-1-10.3-2.1c-3.2-1.1-6.1-2.7-8.1-4.7
		c-2-2-5.2-1.9-7.1,0.1c-1.9,2-1.9,5.2,0.1,7.1c0.3,0.3,0.6,0.5,0.9,0.7l0.3,0.2c4,2.4,8.3,3.5,12.4,3.9s8.1,0.3,11.9-0.2
		c3.9-0.5,7.6-1.2,11.3-2.2c3.7-1,7.3-2.1,10.8-3.5C292.3,252.7,288.6,253,284.9,253.2z"/>
</g>
<g>
</g>
<g>
</g>
<g>
</g>
<g>
</g>
<g>
</g>
<g>
</g>
<g>
</g>
<g>
</g>
<g>
</g>
<g>
</g>
<g>
</g>
<g>
</g>
<g>
</g>
<g>
</g>
<g>
</g>
</svg>
